<?xml version="1.0" ?><svg viewBox="0 0 430.29 433.55" xmlns="http://www.w3.org/2000/svg"><title/><g data-name="Layer 2" id="Layer_2"><g data-name="torii, shrine, japan, travel, gate, temple, shinto, landmark, red, architecture" id="torii_shrine_japan_travel_gate_temple_shinto_landmark_red_architecture"><path d="M377,145.3H341.12V120.81a16.82,16.82,0,0,0,14.93-16.69V90.51h8.09a20.23,20.23,0,0,0,17.44-10.05A5.47,5.47,0,0,0,372.12,75a9.26,9.26,0,0,1-8,4.61H263.91a5.47,5.47,0,0,0,0,10.93H276v13.61a16.82,16.82,0,0,0,16.8,16.8h37.39V363.64H301.86V239.36a5.47,5.47,0,1,0-10.93,0v124.5a16.79,16.79,0,0,0-14.23,16.56v42.2H265a5.47,5.47,0,0,0,0,10.93H370a5.47,5.47,0,1,0,0-10.93H355.34v-42.2a16.78,16.78,0,0,0-14.22-16.56V185.65h5.36a28.82,28.82,0,0,0,24.78-14.21l10.47-17.91A5.47,5.47,0,0,0,377,145.3Zm-90.08-41.18V90.51h58.19v13.61a5.88,5.88,0,0,1-5.87,5.87H292.8A5.87,5.87,0,0,1,286.93,104.12Zm57.48,276.3v42.2H287.63v-42.2a5.86,5.86,0,0,1,5.85-5.85h45.09A5.86,5.86,0,0,1,344.41,380.42Zm17.41-214.5a17.84,17.84,0,0,1-15.34,8.8h-5.36V156.23h26.36Z"/><path d="M296.39,221.71a5.47,5.47,0,0,0,5.47-5.47V138a5.47,5.47,0,0,0-10.93,0v7.26H266.27a5.47,5.47,0,0,0,0,10.93h24.66v60A5.46,5.46,0,0,0,296.39,221.71Z"/><path d="M149,180.18a5.46,5.46,0,0,0,5.46,5.47H275.77a5.47,5.47,0,1,0,0-10.93H154.48A5.45,5.45,0,0,0,149,180.18Z"/><path d="M126,17.75a5.46,5.46,0,1,0-.87,10.89l3.26.26h.42A5.46,5.46,0,0,0,129.24,18Z"/><path d="M428.16,1.14a5.46,5.46,0,0,0-4.73-1c-.8.21-81.75,21.08-208.16,21.08-14.64,0-29.41-.29-43.91-.84a5.46,5.46,0,1,0-.42,10.92c14.64.56,29.55.85,44.33.85,106.89,0,181.84-14.81,204.08-19.81v21a17.24,17.24,0,0,1-5,12.39A17.46,17.46,0,0,1,401.85,51H28.7A17.66,17.66,0,0,1,11.06,33.35l-.1-21C22.23,15,47,20,83.08,24.41A5.47,5.47,0,0,0,84.4,13.56C35.55,7.61,7.13.25,6.85.18A5.47,5.47,0,0,0,0,5.49L.13,33.38A28.6,28.6,0,0,0,28.7,61.94H401.85a28.35,28.35,0,0,0,28.43-28.56V5.47A5.45,5.45,0,0,0,428.16,1.14Z"/><path d="M188.63,422.62H153.85v-42.2a16.79,16.79,0,0,0-14.23-16.56V156.23H163.1a5.47,5.47,0,1,0,0-10.93H139.62V120.81a16.81,16.81,0,0,0,14.93-16.69V90.51h13.17a5.47,5.47,0,1,0,0-10.93H66.41a9.28,9.28,0,0,1-8-4.61A5.47,5.47,0,0,0,49,80.45,20.24,20.24,0,0,0,66.41,90.51H74.5v13.61a16.81,16.81,0,0,0,14.93,16.69V145.3H53.53a5.46,5.46,0,0,0-4.71,8.23l10.47,17.91a28.82,28.82,0,0,0,24.78,14.21h5.36V363.86A16.79,16.79,0,0,0,75.2,380.42v28.8a5.47,5.47,0,0,0,10.94,0v-28.8A5.86,5.86,0,0,1,92,374.57h45.09a5.86,5.86,0,0,1,5.84,5.85v42.2H51.73a5.47,5.47,0,1,0,0,10.93h136.9a5.47,5.47,0,1,0,0-10.93ZM100.36,243.5V120.92h28.33V363.64H100.36ZM85.43,104.12V90.51h58.19v13.61a5.87,5.87,0,0,1-5.87,5.87H91.3A5.87,5.87,0,0,1,85.43,104.12Zm-1.36,70.6a17.84,17.84,0,0,1-15.34-8.8l-5.67-9.69H89.43v18.49Z"/><path d="M223.67,422.62H218a5.47,5.47,0,1,0,0,10.93h5.66a5.47,5.47,0,0,0,0-10.93Z"/><path d="M405.33,422.62h-5.17a5.47,5.47,0,0,0,0,10.93h5.17a5.47,5.47,0,1,0,0-10.93Z"/><path d="M188.63,117.13a5.46,5.46,0,0,0-5.46,5.46v35.17a5.45,5.45,0,0,0,5.46,5.46h53.28a5.46,5.46,0,0,0,5.47-5.46V76.87a5.47,5.47,0,0,0-5.47-5.47H188.63a5.46,5.46,0,0,0-5.46,5.47v23.38a5.47,5.47,0,0,0,10.93,0V82.33h42.35v70H194.1v-29.7A5.47,5.47,0,0,0,188.63,117.13Z"/></g></g></svg>